PathFileType	4	(X/Y/Z)	./resultDataOpenSim/trcMotMarkerGrf/sub09/qtm-15-04.trc
DataRate	CameraRate	NumFrames	NumMarkers	Units	OrigDataRate	OrigDataStartFrame	OrigNumFrames
250.000000	250.000000	7	24	m	250.000000	424	484
Frame#	Time	L.Toe.Tip			R.Toe.Tip			L.Ankle.Lat			R.Ankle.Lat			L.Ankle.Med			R.Ankle.Med			L.Heel			R.Heel			L.Knee.Lat			R.Knee.Lat			L.Knee.Med			R.Knee.Med			L.Thigh.Upper			R.Thigh.Upper			L.ASIS			R.ASIS			V.Sacral			L.Acromium			R.Acromium			C7			L.Elbow			R.Elbow			L.Wrist.Lat			R.Wrist.Lat
		X1	Y1	Z1	X2	Y2	Z2	X3	Y3	Z3	X4	Y4	Z4	X5	Y5	Z5	X6	Y6	Z6	X7	Y7	Z7	X8	Y8	Z8	X9	Y9	Z9	X10	Y10	Z10	X11	Y11	Z11	X12	Y12	Z12	X13	Y13	Z13	X14	Y14	Z14	X15	Y15	Z15	X16	Y16	Z16	X17	Y17	Z17	X18	Y18	Z18	X19	Y19	Z19	X20	Y20	Z20	X21	Y21	Z21	X22	Y22	Z22	X23	Y23	Z23	X24	Y24	Z24

424	1.692	1.7495075	0.12906122	-0.11357421	1.0129571	0.041711402	0.0076927023	1.6024702	0.091990835	-0.14328829	0.89876193	0.13121932	0.054639273	1.6210293	0.11860776	-0.049877417	0.93181157	0.16377936	-0.031931179	1.5585129	0.026239196	-0.092011747	0.83442538	0.15075537	0.0015367375	1.4681897	0.48900258	-0.17604072	1.1627061	0.51511969	0.1228514	1.4666856	0.47966467	-0.049023648	1.1562686	0.50278866	-0.0016991784	1.3250442	0.88437717	-0.20924722	1.2608397	0.90436425	0.15686455	1.3963198	0.97377539	-0.14052039	1.3830813	0.97602541	0.099955287	1.2236529	1.0309131	-0.040353449	1.3700534	1.4335245	-0.19855116	1.3648973	1.4492907	0.13040406	1.3018066	1.4846978	-0.032443193	1.16585	1.1313869	-0.25250911	1.2071694	1.1173988	0.24628475	1.2524783	0.8860589	-0.31717032	1.444175	0.96271131	0.25278311
425	1.696	1.7587056	0.12918516	-0.11301146	1.0131853	0.04175024	0.007665346	1.612016	0.091128745	-0.1424037	0.90022723	0.13220629	0.054902107	1.6302464	0.11808132	-0.049150319	0.93331808	0.16455558	-0.031413038	1.5682181	0.025179163	-0.091145204	0.83585135	0.15243705	0.0021108546	1.4759493	0.48777355	-0.17584266	1.1677378	0.51415355	0.12289414	1.4734243	0.47824116	-0.04879392	1.1609405	0.5017347	-0.0013687357	1.332687	0.8822301	-0.20934825	1.2660363	0.90289649	0.15604612	1.4031426	0.97190103	-0.14085321	1.3895283	0.97423432	0.09967574	1.2302755	1.0290162	-0.041204149	1.3760046	1.4318029	-0.19912584	1.370397	1.4476554	0.12984176	1.3074059	1.4828781	-0.033070791	1.1718275	1.1299845	-0.25343692	1.2139676	1.1153313	0.2451725	1.2576151	0.8844499	-0.31836034	1.4508566	0.96153042	0.25241811
426	1.7	1.7671917	0.1285172	-0.11246416	1.0134186	0.041792669	0.0075677242	1.620596	0.089933499	-0.14147347	0.90150465	0.13331365	0.055163389	1.6388128	0.11721991	-0.048362194	0.93492975	0.16535075	-0.030860514	1.5769251	0.023917777	-0.090002596	0.83734654	0.15419652	0.0027464752	1.4840482	0.48657779	-0.17557161	1.1728031	0.51305019	0.12307818	1.4806774	0.47692737	-0.048579193	1.1656084	0.50050839	-0.0010970994	1.3403588	0.87998894	-0.20947772	1.2714091	0.90135998	0.15530269	1.4099583	0.96993804	-0.14118928	1.3959578	0.97240573	0.099412531	1.2368644	1.027067	-0.042065494	1.3819854	1.4300219	-0.19971771	1.3758511	1.4459735	0.12925566	1.313026	1.4809983	-0.033719018	1.1778772	1.1284985	-0.25435992	1.2206265	1.1132615	0.24419751	1.2628833	0.88276962	-0.319572	1.4574886	0.96026023	0.25209341
427	1.704	1.7749931	0.12709125	-0.11193019	1.013669	0.041841754	0.0074289632	1.6283129	0.088400948	-0.14050107	0.90248695	0.13459223	0.05554888	1.6467575	0.11595303	-0.04751303	0.93664969	0.1661636	-0.03026572	1.5845678	0.022581164	-0.088730186	0.83895119	0.1560262	0.0033895583	1.4924249	0.48539135	-0.17523095	1.1778488	0.51183855	0.12341775	1.4885046	0.47574149	-0.048349022	1.1703407	0.49914933	-0.00082922636	1.3480078	0.87768754	-0.20973529	1.277161	0.89972227	0.15466789	1.4167907	0.96788365	-0.1415276	1.4023961	0.97054131	0.099161671	1.2434585	1.0250765	-0.042939732	1.3879974	1.4281853	-0.2003254	1.3811062	1.4442806	0.12863769	1.3186728	1.4790484	-0.034388042	1.1839868	1.1269291	-0.25527721	1.2270437	1.1112099	0.24345868	1.268274	0.88101435	-0.32080476	1.4640432	0.95890722	0.25181772
428	1.708	1.782183	0.12483991	-0.11142807	1.0139552	0.041904297	0.0072968359	1.6353179	0.086561089	-0.13949409	0.90331328	0.13601627	0.056159377	1.6540977	0.11422797	-0.046595747	0.93846771	0.16699822	-0.029629644	1.5910435	0.021383298	-0.087532617	0.84068323	0.15791976	0.0040139507	1.5010162	0.48420725	-0.17485657	1.1831036	0.51053801	0.12384125	1.4968781	0.47466855	-0.048099653	1.175305	0.4977031	-0.00049207782	1.3555643	0.87536934	-0.21013425	1.2832622	0.89799705	0.15410932	1.4236591	0.96573755	-0.14186575	1.4088636	0.96865111	0.098916134	1.2500668	1.0230474	-0.043815745	1.3940337	1.4262959	-0.20094376	1.3860499	1.4426068	0.12798369	1.3243458	1.4770241	-0.035088383	1.1901468	1.125276	-0.25619877	1.2332864	1.1091553	0.24286669	1.2737701	0.87918212	-0.32204919	1.4705076	0.95747554	0.25159324
429	1.712	1.7888805	0.12143252	-0.11097095	1.0142878	0.04197919	0.007199873	1.6417386	0.084488504	-0.13847535	0.90431903	0.13746583	0.056924803	1.660835	0.11205223	-0.045609009	0.94036204	0.16786326	-0.028961211	1.5962072	0.020543987	-0.086590365	0.84253542	0.15988095	0.0046367725	1.5097542	0.48301388	-0.17447441	1.1887733	0.50914673	0.12427481	1.5057076	0.47367583	-0.047858312	1.1806051	0.49616218	-5.5494427e-05	1.3629632	0.87307208	-0.2106245	1.2895595	0.89621148	0.15356632	1.4305577	0.96351258	-0.14220457	1.4153586	0.96674205	0.098665048	1.2566902	1.0209873	-0.04467407	1.4000853	1.4243548	-0.20157289	1.3908198	1.4409286	0.1272989	1.3300416	1.4749265	-0.035833215	1.1963609	1.123534	-0.25713245	1.2394482	1.1070763	0.24230669	1.2793633	0.87727145	-0.3232965	1.4769044	0.95596597	0.25140835
430	1.716	1.7952035	0.11628186	-0.11050345	1.0146577	0.042049902	0.0071522452	1.6475964	0.082302234	-0.13749012	0.90570888	0.1388502	0.057718355	1.6669549	0.1095488	-0.044592712	0.94231968	0.16876283	-0.028254994	1.5999474	0.020242381	-0.085950236	0.84450247	0.16191893	0.0052939689	1.5185868	0.4818152	-0.17412361	1.1947484	0.50764707	0.12472453	1.5148817	0.47272682	-0.047669996	1.1862624	0.49447421	0.00048370321	1.370187	0.87082287	-0.21117595	1.2959332	0.89437691	0.15299537	1.4374404	0.96124399	-0.14254249	1.4218721	0.96480935	0.098396295	1.2633013	1.0189204	-0.045509553	1.4061465	1.4223644	-0.2022192	1.3957453	1.4391763	0.12660249	1.3357527	1.4727788	-0.036611953	1.202633	1.1216933	-0.25807729	1.2455821	1.1049657	0.24172809	1.2850552	0.87528514	-0.3245449	1.4832647	0.95437694	0.25124407
